<!DOCTYPE svg PUBLIC "-//W3C//DTD SVG 1.1//EN" "http://www.w3.org/Graphics/SVG/1.1/DTD/svg11.dtd">
<!-- Uploaded to: SVG Repo, www.svgrepo.com, Transformed by: SVG Repo Mixer Tools -->
<svg fill="#000000" width="800px" height="800px" viewBox="0 0 24 24" id="left-right-arrow" data-name="Flat Color" xmlns="http://www.w3.org/2000/svg" class="icon flat-color">
<g id="SVGRepo_bgCarrier" stroke-width="0"/>
<g id="SVGRepo_tracerCarrier" stroke-linecap="round" stroke-linejoin="round"/>
<g id="SVGRepo_iconCarrier">
<path id="secondary" d="M20,7H6.41l1.3-1.29A1,1,0,0,0,6.29,4.29l-3,3a1,1,0,0,0,0,1.42l3,3a1,1,0,0,0,1.42,0,1,1,0,0,0,0-1.42L6.41,9H20a1,1,0,0,0,0-2Z" style="fill: #e12628;"/>
<path id="primary" d="M20.71,15.29l-3-3a1,1,0,0,0-1.42,1.42L17.59,15H4a1,1,0,0,0,0,2H17.59l-1.3,1.29a1,1,0,0,0,0,1.42,1,1,0,0,0,1.42,0l3-3A1,1,0,0,0,20.71,15.29Z" style="fill: #011533;"/>
</g>
</svg>